- 
http://www.Speed.Cd 
       
http://www.Speed.Cd      fast  and The Hottest Private Tracker on the net

(((--Submit for invite!!--)))

Please Seed back to make the speed Faster!!!

------------------nfo--------------------------
-








































          
          
              
              
                    
                    
                    
                    

Blue.Collar.1978.DVDRiP.x264-SiC

Poster:
[img]http://img594.imageshack.us/img594/1865/bluecollar.jpg[/img]

IMDB Link: 
http://www.imdb.com/title/tt0077248/

Description:
Three workers, Zeke, Jerry and Smokey, are working at a car plant and drinking their beers together. One night when they steal away from their wives to have some fun they get the idea to rob the local union's bureau safe. First they think it is a flop, because they get only 600 dollars out of it, but then Zeke realizes that they also have gotten some 'hot' material. They decide to blackmail their union. The best reason for that is the union itself. All three are provoked by the fact that the union claims to have lost 10,000 dollars by their robbery.  

MediaInfo:
General
Unique ID                        : 187324831521785888203373842986737067849 (0x8CED7342A2678EF0A0EFE465CA87E749)
Complete name                    : Blue.Collar.1978.DVDRiP.x264-SiC.mkv
Format                           : Matroska
File size                        : 1.36 GiB
Duration                         : 1h 48mn
Overall bit rate                 : 1 784 Kbps
Encoded date                     : UTC 2011-09-09 17:34:30
Writing application              : mkvmerge v4.8.0 ('I Got The...') built on May 24 2011 03:12:58
Writing library                  : libebml v1.2.0 + libmatroska v1.1.0

Video
ID                               : 1
Format                           : AVC
Format/Info                      : Advanced Video Codec
Format profile                   : High@L3.0
Format settings, CABAC           : Yes
Format settings, ReFrames        : 4 frames
Format settings, GOP             : M=4, N=51
Codec ID                         : V_MPEG4/ISO/AVC
Duration                         : 1h 48mn
Bit rate                         : 1 590 Kbps
Width                            : 720 pixels
Height                           : 384 pixels
Display aspect ratio             : 1.875
Frame rate                       : 25.000 fps
Color space                      : YUV
Chroma subsampling               : 4:2:0
Bit depth                        : 8 bits
Scan type                        : Progressive
Bits/(Pixel*Frame)               : 0.230
Stream size                      : 1.18 GiB (87%)
Writing library                  : x264 core 115 r1995 c1e60b9
Encoding settings                : cabac=1 / ref=3 / deblock=1:0:0 / analyse=0x3:0x113 / me=hex / subme=7 / psy=1 / psy_rd=1.00:0.00 / mixed_ref=1 / me_range=16 / chroma_me=1 / trellis=1 / 8x8dct=1 / cqm=0 / deadzone=21,11 / fast_pskip=1 / chroma_qp_offset=-2 / threads=3 / sliced_threads=0 / nr=0 / decimate=1 / interlaced=0 / bluray_compat=0 / constrained_intra=0 / bframes=3 / b_pyramid=2 / b_adapt=1 / b_bias=0 / direct=1 / weightb=1 / open_gop=0 / weightp=2 / keyint=250 / keyint_min=25 / scenecut=40 / intra_refresh=0 / rc_lookahead=40 / rc=2pass / mbtree=1 / bitrate=1590 / ratetol=1.0 / qcomp=0.60 / qpmin=0 / qpmax=69 / qpstep=4 / cplxblur=20.0 / qblur=0.5 / ip_ratio=1.40 / aq=1:1.00
Language                         : English

Audio
ID                               : 2
Format                           : AC-3
Format/Info                      : Audio Coding 3
Mode extension                   : CM (complete main)
Codec ID                         : A_AC3
Duration                         : 1h 48mn
Bit rate mode                    : Constant
Bit rate                         : 192 Kbps
Channel(s)                       : 2 channels
Channel positions                : Front: L R
Sampling rate                    : 48.0 KHz
Bit depth                        : 16 bits
Compression mode                 : Lossy
Stream size                      : 150 MiB (11%)

Screenshots:
[img]http://img819.imageshack.us/img819/7638/vlcsnap2011090922h50m20.png[/img]
[img]http://img580.imageshack.us/img580/2655/vlcsnap2011090922h50m28.png[/img]
[img]http://img600.imageshack.us/img600/3870/vlcsnap2011090922h50m40.png[/img]
[img]http://img546.imageshack.us/img546/4932/vlcsnap2011090922h50m50.png[/img]
[img]http://img198.imageshack.us/img198/2851/vlcsnap2011090922h51m27.png[/img]


Note : Harvey Keitel? Richard Pryor in a serios role? What more could you ask for?   

Source: Our own

Enjoy!

Respects to CaptainHomey, Cyanide, CM8, Rx, THC, ELEKTRI4KA, 
Killerhz, PA, YeFsTe, BoxSlots, MrRep and everyone in the struggle...